<svg xmlns="http://www.w3.org/2000/svg" viewBox="0 0 64 64" fill="none" aria-hidden="true">
  <defs>
    <radialGradient id="cherryBodyL" cx="34%" cy="30%" r="62%">
      <stop offset="0%" stop-color="#ff6b7d"/>
      <stop offset="22%" stop-color="#e82338"/>
      <stop offset="55%" stop-color="#b80e22"/>
      <stop offset="82%" stop-color="#7a0816"/>
      <stop offset="100%" stop-color="#4a050e"/>
    </radialGradient>
    <radialGradient id="cherryBodyR" cx="36%" cy="28%" r="60%">
      <stop offset="0%" stop-color="#ff7a8a"/>
      <stop offset="22%" stop-color="#ec2a3f"/>
      <stop offset="55%" stop-color="#c01228"/>
      <stop offset="82%" stop-color="#840a1a"/>
      <stop offset="100%" stop-color="#520810"/>
    </radialGradient>
    <radialGradient id="cherryInnerL" cx="42%" cy="38%" r="42%">
      <stop offset="0%" stop-color="#ff9aa8" stop-opacity="0.55"/>
      <stop offset="45%" stop-color="#d41a30" stop-opacity="0.18"/>
      <stop offset="100%" stop-color="#5a0812" stop-opacity="0"/>
    </radialGradient>
    <radialGradient id="cherryInnerR" cx="44%" cy="36%" r="40%">
      <stop offset="0%" stop-color="#ffa0ad" stop-opacity="0.5"/>
      <stop offset="45%" stop-color="#d82238" stop-opacity="0.16"/>
      <stop offset="100%" stop-color="#5a0812" stop-opacity="0"/>
    </radialGradient>
    <radialGradient id="specularL" cx="26%" cy="24%" r="18%">
      <stop offset="0%" stop-color="#fff" stop-opacity="0.98"/>
      <stop offset="35%" stop-color="#fff" stop-opacity="0.42"/>
      <stop offset="100%" stop-color="#fff" stop-opacity="0"/>
    </radialGradient>
    <radialGradient id="specularR" cx="28%" cy="22%" r="16%">
      <stop offset="0%" stop-color="#fff" stop-opacity="0.95"/>
      <stop offset="35%" stop-color="#fff" stop-opacity="0.38"/>
      <stop offset="100%" stop-color="#fff" stop-opacity="0"/>
    </radialGradient>
    <radialGradient id="rimLightL" cx="78%" cy="72%" r="28%">
      <stop offset="0%" stop-color="#ff8a98" stop-opacity="0.35"/>
      <stop offset="100%" stop-color="#ff8a98" stop-opacity="0"/>
    </radialGradient>
    <radialGradient id="rimLightR" cx="80%" cy="70%" r="26%">
      <stop offset="0%" stop-color="#ff96a3" stop-opacity="0.32"/>
      <stop offset="100%" stop-color="#ff96a3" stop-opacity="0"/>
    </radialGradient>
    <linearGradient id="stemWood" x1="50%" y1="0%" x2="50%" y2="100%">
      <stop offset="0%" stop-color="#4a6b2e"/>
      <stop offset="35%" stop-color="#5f7f38"/>
      <stop offset="100%" stop-color="#3d3018"/>
    </linearGradient>
    <linearGradient id="leafMain" x1="20%" y1="10%" x2="85%" y2="90%">
      <stop offset="0%" stop-color="#a8d468"/>
      <stop offset="40%" stop-color="#6f9f3d"/>
      <stop offset="100%" stop-color="#3f6428"/>
    </linearGradient>
    <linearGradient id="dropGrad" x1="30%" y1="0%" x2="70%" y2="100%">
      <stop offset="0%" stop-color="#fff" stop-opacity="0.92"/>
      <stop offset="55%" stop-color="#dff4ff" stop-opacity="0.45"/>
      <stop offset="100%" stop-color="#9ec8e8" stop-opacity="0.15"/>
    </linearGradient>
    <filter id="cherryGroupShadow" x="-25%" y="-15%" width="150%" height="145%">
      <feDropShadow dx="0" dy="2.2" stdDeviation="1.8" flood-color="#2a060c" flood-opacity="0.38"/>
    </filter>
    <filter id="dropShadow" x="-80%" y="-80%" width="260%" height="260%">
      <feDropShadow dx="0" dy="0.4" stdDeviation="0.35" flood-color="#1a3040" flood-opacity="0.35"/>
    </filter>
  </defs>

  <ellipse cx="32" cy="56.5" rx="18" ry="3.2" fill="#2a060c" opacity="0.14"/>

  <g filter="url(#cherryGroupShadow)">
    <!-- stems -->
    <path d="M32 10.2c-0.8 1.6-1.3 3.4-1.5 5.2" stroke="url(#stemWood)" stroke-width="1.7" stroke-linecap="round"/>
    <path d="M32 10.2c0.9 1.5 1.5 3.2 1.8 4.9" stroke="url(#stemWood)" stroke-width="1.7" stroke-linecap="round"/>
    <path d="M32 9.8c1.8-2.4 4.8-3.6 7.6-2.8" stroke="url(#stemWood)" stroke-width="1.5" stroke-linecap="round"/>
    <circle cx="32" cy="10.4" r="1.35" fill="#3d3018"/>
    <circle cx="32" cy="10.1" r="0.55" fill="#6a5530" opacity="0.7"/>

    <!-- leaf -->
    <path d="M24.2 13.8c3.8-4.2 9.8-4.8 14.2-1.8 0.9 0.6 1.7 1.4 2.3 2.4-3.8-1.6-8.4-0.8-11.4 2.2-1.4 1.3-2.4 2.9-2.8 4.7" fill="url(#leafMain)" stroke="#355a22" stroke-width="0.7"/>
    <path d="M27.4 14.8c2.2-1.8 5.2-2.2 7.8-1.2" stroke="#b8e07a" stroke-width="0.55" stroke-linecap="round" opacity="0.55"/>
    <path d="M26.2 16.4c1.8-1.1 4-1.4 6-0.7" stroke="#b8e07a" stroke-width="0.45" stroke-linecap="round" opacity="0.4"/>
    <path d="M30.8 12.6c0.5 1.8 0.4 3.6-0.2 5.2" stroke="#4a7028" stroke-width="0.45" stroke-linecap="round" opacity="0.45"/>

    <!-- left cherry -->
    <path d="M24.8 39.8c-8.2 0.2-14.8 5.8-14.6 13.8 0.2 7.2 6.2 12.6 13.8 12.4 7.2-0.2 13.2-5.8 13.4-13 0.2-6.2-4.2-11.4-10-13-1.8-0.5-3.8-0.4-5.6 0.2-0.8-2.2-0.4-4.6 1.2-6.4 1.4-1.5 3.6-2.2 5.6-1.8" fill="url(#cherryBodyL)"/>
    <path d="M24.8 39.8c-8.2 0.2-14.8 5.8-14.6 13.8 0.2 7.2 6.2 12.6 13.8 12.4 7.2-0.2 13.2-5.8 13.4-13 0.2-6.2-4.2-11.4-10-13-1.8-0.5-3.8-0.4-5.6 0.2-0.8-2.2-0.4-4.6 1.2-6.4 1.4-1.5 3.6-2.2 5.6-1.8" fill="url(#cherryInnerL)"/>
    <path d="M24.8 39.8c-8.2 0.2-14.8 5.8-14.6 13.8 0.2 7.2 6.2 12.6 13.8 12.4 7.2-0.2 13.2-5.8 13.4-13 0.2-6.2-4.2-11.4-10-13-1.8-0.5-3.8-0.4-5.6 0.2-0.8-2.2-0.4-4.6 1.2-6.4 1.4-1.5 3.6-2.2 5.6-1.8" fill="url(#rimLightL)"/>
    <path d="M24.8 39.8c-8.2 0.2-14.8 5.8-14.6 13.8 0.2 7.2 6.2 12.6 13.8 12.4 7.2-0.2 13.2-5.8 13.4-13 0.2-6.2-4.2-11.4-10-13-1.8-0.5-3.8-0.4-5.6 0.2-0.8-2.2-0.4-4.6 1.2-6.4 1.4-1.5 3.6-2.2 5.6-1.8" fill="url(#specularL)"/>
    <ellipse cx="21.2" cy="51.8" rx="3.8" ry="2.1" fill="#2a0508" opacity="0.22"/>
    <path d="M22.2 33.8c1.2-0.8 2.8-1 4.2-0.5" stroke="#5a0a14" stroke-width="0.9" stroke-linecap="round" opacity="0.42"/>
    <ellipse cx="23.8" cy="32.4" rx="1.5" ry="1.1" fill="#2a080e" opacity="0.55"/>

    <!-- right cherry -->
    <path d="M40.2 41.2c-7.6 0.4-13.6 6-13.2 13.6 0.4 7.4 6.6 12.8 14.2 12.2 7-0.6 12.6-6.4 12.4-13.6-0.2-6.4-4.8-11.6-10.6-13-1.6-0.4-3.4-0.3-5 0.3-0.6-2.1-0.1-4.4 1.4-6.1 1.3-1.4 3.3-2 5.2-1.6" fill="url(#cherryBodyR)"/>
    <path d="M40.2 41.2c-7.6 0.4-13.6 6-13.2 13.6 0.4 7.4 6.6 12.8 14.2 12.2 7-0.6 12.6-6.4 12.4-13.6-0.2-6.4-4.8-11.6-10.6-13-1.6-0.4-3.4-0.3-5 0.3-0.6-2.1-0.1-4.4 1.4-6.1 1.3-1.4 3.3-2 5.2-1.6" fill="url(#cherryInnerR)"/>
    <path d="M40.2 41.2c-7.6 0.4-13.6 6-13.2 13.6 0.4 7.4 6.6 12.8 14.2 12.2 7-0.6 12.6-6.4 12.4-13.6-0.2-6.4-4.8-11.6-10.6-13-1.6-0.4-3.4-0.3-5 0.3-0.6-2.1-0.1-4.4 1.4-6.1 1.3-1.4 3.3-2 5.2-1.6" fill="url(#rimLightR)"/>
    <path d="M40.2 41.2c-7.6 0.4-13.6 6-13.2 13.6 0.4 7.4 6.6 12.8 14.2 12.2 7-0.6 12.6-6.4 12.4-13.6-0.2-6.4-4.8-11.6-10.6-13-1.6-0.4-3.4-0.3-5 0.3-0.6-2.1-0.1-4.4 1.4-6.1 1.3-1.4 3.3-2 5.2-1.6" fill="url(#specularR)"/>
    <ellipse cx="36.8" cy="53.2" rx="3.5" ry="1.9" fill="#2a0508" opacity="0.2"/>
    <path d="M37.8 35.2c1.1-0.7 2.6-0.9 3.9-0.4" stroke="#5a0a14" stroke-width="0.85" stroke-linecap="round" opacity="0.4"/>
    <ellipse cx="39.2" cy="33.8" rx="1.4" ry="1" fill="#2a080e" opacity="0.5"/>

    <!-- contact shadow -->
    <ellipse cx="32.2" cy="47.8" rx="2.8" ry="4.2" fill="#2a0508" opacity="0.16" transform="rotate(-18 32.2 47.8)"/>

    <!-- water droplets -->
    <g filter="url(#dropShadow)">
      <path d="M18.8 44.2c0-1.1 0.9-2.4 1.4-2.4s1.4 1.3 1.4 2.4c0 0.8-0.6 1.5-1.4 1.5s-1.4-0.7-1.4-1.5z" fill="url(#dropGrad)"/>
      <ellipse cx="19.1" cy="43.5" rx="0.35" ry="0.55" fill="#fff" opacity="0.75"/>
      <path d="M47.2 46.8c0-0.85 0.7-1.85 1.1-1.85s1.1 0.95 1.1 1.85c0 0.62-0.48 1.15-1.1 1.15s-1.1-0.53-1.1-1.15z" fill="url(#dropGrad)" opacity="0.92"/>
      <ellipse cx="47.45" cy="46.25" rx="0.28" ry="0.42" fill="#fff" opacity="0.7"/>
    </g>
  </g>
</svg>
