<svg xmlns="http://www.w3.org/2000/svg" viewBox="0 0 400 520" aria-hidden="true" focusable="false">
  <defs>
    <linearGradient id="uk-map-sky" x1="0%" y1="0%" x2="100%" y2="100%">
      <stop offset="0%" stop-color="#3d3834"/>
      <stop offset="100%" stop-color="#1f1c1a"/>
    </linearGradient>
    <linearGradient id="uk-map-land" x1="0%" y1="0%" x2="0%" y2="100%">
      <stop offset="0%" stop-color="rgba(255,255,255,0.16)"/>
      <stop offset="100%" stop-color="rgba(255,255,255,0.06)"/>
    </linearGradient>
  </defs>
  <rect width="400" height="520" fill="url(#uk-map-sky)"/>
  <path class="stockist-locator__map-landmass" d="M 219.19 415.00 L 207.15 418.32 L 200.59 423.15 L 197.86 427.46 L 177.51 423.02 L 175.44 418.12 L 167.26 415.31 L 165.29 418.66 L 162.88 418.20 L 158.39 419.54 L 154.86 415.02 L 158.81 414.25 L 162.11 412.29 L 153.66 408.79 L 151.88 405.08 L 148.54 406.39 L 139.39 410.64 L 132.74 413.32 L 128.46 415.84 L 125.10 410.83 L 132.88 409.42 L 129.36 405.87 L 120.82 409.18 L 118.26 408.16 L 122.08 401.92 L 114.68 400.54 L 116.72 397.59 L 123.46 392.05 L 130.63 391.36 L 136.11 388.51 L 146.89 384.20 L 158.53 376.75 L 163.86 362.79 L 164.23 361.55 L 164.10 352.41 L 160.43 345.97 L 163.80 339.78 L 157.29 339.78 L 146.88 344.46 L 143.24 345.82 L 136.74 347.62 L 144.81 338.70 L 153.36 328.48 L 158.39 323.50 L 165.98 320.99 L 173.86 316.79 L 194.36 315.44 L 202.59 319.20 L 202.21 311.00 L 211.95 318.03 L 215.81 315.95 L 214.56 316.25 L 202.00 302.06 L 203.99 290.65 L 210.48 280.19 L 210.08 277.20 L 213.26 271.63 L 213.75 262.96 L 206.03 268.11 L 203.82 266.86 L 198.79 271.97 L 196.10 267.30 L 195.24 265.83 L 189.94 258.93 L 181.24 248.09 L 186.11 235.39 L 192.28 225.19 L 197.48 222.19 L 202.35 221.79 L 187.30 220.45 L 183.34 219.82 L 176.66 227.66 L 173.66 226.65 L 171.96 228.54 L 164.22 232.27 L 163.22 229.72 L 156.21 228.90 L 149.83 225.75 L 152.69 231.43 L 151.61 237.91 L 138.04 230.08 L 128.73 230.20 L 130.85 236.63 L 128.57 239.22 L 127.20 234.85 L 119.70 220.10 L 123.69 219.81 L 127.04 223.93 L 124.85 216.34 L 131.99 206.70 L 134.68 199.06 L 141.51 189.53 L 133.94 182.74 L 131.57 172.70 L 135.22 164.26 L 137.64 161.87 L 133.17 158.85 L 132.06 157.92 L 131.46 154.85 L 130.62 158.20 L 128.53 162.37 L 128.52 167.59 L 122.34 162.42 L 119.58 164.76 L 118.77 171.51 L 113.30 166.80 L 122.59 153.02 L 127.05 147.74 L 113.34 158.65 L 109.52 160.91 L 109.67 164.77 L 111.17 169.07 L 111.38 176.20 L 107.55 182.82 L 106.79 189.13 L 103.58 194.86 L 104.63 200.38 L 98.00 202.39 L 98.41 192.46 L 100.22 181.38 L 107.98 172.43 L 100.28 172.70 L 101.88 167.25 L 103.90 159.90 L 99.23 165.56 L 103.86 156.17 L 105.55 156.08 L 105.35 151.18 L 105.92 147.49 L 103.28 147.34 L 108.99 140.64 L 108.63 136.31 L 122.79 130.37 L 110.47 132.68 L 113.34 131.49 L 113.32 130.44 L 111.18 129.05 L 114.49 123.40 L 126.91 120.41 L 119.31 116.64 L 116.10 120.58 L 109.93 124.39 L 100.04 133.07 L 97.06 128.73 L 91.13 124.17 L 101.09 122.42 L 90.80 122.78 L 78.83 122.00 L 79.47 118.53 L 92.64 118.40 L 93.50 116.86 L 99.30 112.38 L 95.82 109.85 L 93.37 105.30 L 100.65 105.19 L 101.83 104.47 L 96.93 101.65 L 100.46 96.85 L 110.61 97.85 L 100.26 95.47 L 107.72 90.31 L 107.37 87.10 L 103.82 87.96 L 100.12 84.10 L 108.31 79.51 L 102.27 80.31 L 94.36 81.17 L 92.97 77.98 L 93.19 71.71 L 98.73 72.67 L 105.34 73.12 L 98.45 70.33 L 95.42 64.22 L 99.06 62.22 L 94.76 55.24 L 100.28 57.38 L 102.84 58.29 L 100.96 52.53 L 107.44 54.55 L 115.09 54.19 L 111.00 50.33 L 116.16 51.19 L 123.70 55.55 L 118.99 49.25 L 112.80 45.21 L 109.78 40.56 L 115.50 39.67 L 115.21 37.19 L 113.39 34.48 L 118.18 31.12 L 126.03 31.59 L 126.34 30.54 L 121.29 28.35 L 120.93 23.40 L 124.99 23.11 L 123.37 21.83 L 122.63 16.51 L 132.30 10.79 L 133.94 15.91 L 137.50 12.86 L 137.33 18.46 L 142.53 14.91 L 149.45 15.91 L 149.14 17.55 L 157.04 15.91 L 159.98 13.72 L 165.19 11.84 L 182.27 9.99 L 192.05 10.35 L 192.16 8.55 L 204.18 11.46 L 202.08 18.63 L 200.80 24.89 L 185.53 36.49 L 167.07 48.33 L 162.99 48.29 L 165.79 53.19 L 157.70 53.49 L 158.09 54.36 L 168.96 56.29 L 174.65 56.00 L 163.25 61.81 L 152.94 66.73 L 152.84 68.34 L 163.14 65.58 L 161.89 70.25 L 155.94 72.54 L 160.09 74.62 L 164.50 71.19 L 180.37 66.94 L 185.92 64.79 L 194.66 62.37 L 216.59 64.22 L 225.30 64.84 L 231.27 64.57 L 237.23 64.97 L 247.73 64.56 L 253.46 73.62 L 252.27 79.38 L 243.59 97.13 L 237.97 109.26 L 229.36 117.70 L 226.51 125.58 L 216.73 134.65 L 196.51 140.53 L 208.32 136.44 L 213.01 140.04 L 218.73 142.80 L 214.51 150.69 L 201.68 154.45 L 190.82 160.43 L 172.77 155.27 L 179.03 160.31 L 193.25 162.58 L 209.90 162.00 L 221.15 158.71 L 225.43 161.19 L 240.44 168.15 L 252.43 182.37 L 255.54 183.78 L 260.29 187.37 L 261.81 190.92 L 263.09 201.84 L 264.52 206.30 L 265.51 211.78 L 268.15 217.63 L 270.73 222.55 L 278.33 237.25 L 277.92 240.40 L 278.43 241.30 L 283.48 241.68 L 305.87 254.38 L 309.11 261.55 L 314.35 266.87 L 318.77 283.15 L 328.69 299.16 L 315.83 293.52 L 301.81 293.05 L 300.22 293.98 L 317.28 299.26 L 330.77 307.62 L 334.45 312.52 L 335.94 330.79 L 326.36 341.75 L 337.64 346.48 L 342.84 341.35 L 353.63 336.41 L 363.01 336.98 L 393.69 358.00 L 391.43 374.14 L 387.63 387.86 L 378.41 395.54 L 374.66 393.77 L 370.90 394.79 L 373.38 400.55 L 366.95 405.87 L 359.88 405.48 L 356.11 407.84 L 359.74 408.67 L 362.45 411.47 L 361.37 416.67 L 350.26 419.75 L 342.81 421.46 L 343.03 423.50 L 350.75 424.98 L 352.99 428.47 L 368.35 429.10 L 379.43 433.06 L 373.46 444.67 L 363.42 450.99 L 340.89 460.53 L 331.42 464.54 L 316.48 460.48 L 294.13 464.19 L 290.55 461.75 L 286.31 459.51 L 282.17 460.49 L 279.68 463.32 L 272.53 458.93 L 272.70 461.52 L 265.84 464.67 L 257.70 465.69 L 248.95 467.57 L 244.51 466.55 L 245.45 469.08 L 246.19 473.97 L 227.10 474.64 L 211.29 466.05 L 201.35 468.69 L 194.24 471.61 L 187.78 469.30 L 186.86 475.59 L 184.87 484.74 L 183.98 488.36 L 179.78 495.67 L 167.88 489.83 L 163.65 490.37 L 159.38 485.86 L 158.23 482.52 L 154.86 485.49 L 159.21 488.21 L 152.96 487.03 L 138.84 488.60 L 135.78 491.60 L 131.93 495.19 L 124.61 497.64 L 123.50 501.20 L 123.93 503.27 L 120.93 507.83 L 116.74 507.25 L 107.10 500.95 L 98.81 505.42 L 98.64 500.78 L 108.59 496.85 L 120.25 488.38 L 124.83 483.35 L 128.82 475.95 L 132.88 478.74 L 133.81 474.40 L 140.77 466.64 L 145.33 450.97 L 157.04 447.47 L 156.21 441.91 L 169.03 437.30 L 190.69 439.91 L 205.75 438.35 L 206.25 432.07 L 210.53 426.57 L 222.21 415.18 L 229.51 407.84 L 225.91 408.37 L 219.19 415.00 Z" fill="url(#uk-map-land)" stroke="rgba(242,224,168,0.38)" stroke-width="1.4" stroke-linejoin="round"/>
  <path class="stockist-locator__map-landmass stockist-locator__map-landmass--ni" d="M 37.74 215.55 L 46.84 215.45 L 52.13 209.49 L 70.66 206.16 L 83.47 207.72 L 86.99 215.91 L 91.63 222.97 L 94.61 228.32 L 98.19 228.74 L 91.46 238.49 L 92.24 241.38 L 104.20 238.22 L 107.77 244.43 L 108.59 252.06 L 106.31 257.80 L 105.20 250.88 L 98.77 245.98 L 100.19 248.12 L 100.85 254.86 L 103.78 261.40 L 99.85 263.11 L 92.09 269.21 L 82.66 274.80 L 76.44 271.68 L 72.57 272.51 L 69.27 273.38 L 62.15 274.92 L 60.87 266.71 L 55.15 264.83 L 52.67 258.50 L 44.42 254.53 L 40.20 259.00 L 41.75 262.77 L 37.74 267.38 L 35.79 268.87 L 32.65 270.21 L 28.49 269.96 L 14.38 265.53 L 8.67 258.47 L 1.04 250.65 L 10.84 246.53 L 17.06 241.63 L 11.62 239.12 L 18.35 236.46 L 25.81 234.16 L 30.22 223.12 L 32.59 217.89 L 37.74 215.55 Z" fill="url(#uk-map-land)" stroke="rgba(242,224,168,0.32)" stroke-width="1.2" stroke-linejoin="round"/>
</svg>